<mxfile host="app.diagrams.net" modified="2020-10-14T08:34:49.269Z" agent="5.0 (Macintosh; Intel Mac OS X 10_15_7) AppleWebKit/605.1.15 (KHTML, like Gecko) Version/14.0 Safari/605.1.15" etag="i6f1oGT3h09VjBMjRR44" version="13.7.9" type="github">
  <diagram id="NQbOJsopETxQCSQtDzRj" name="Страница 1">
    <mxGraphModel dx="1773" dy="662" grid="1" gridSize="10" guides="1" tooltips="1" connect="1" arrows="1" fold="1" page="1" pageScale="1" pageWidth="827" pageHeight="1169" background="#F1FAEE" math="0" shadow="0">
      <root>
        <mxCell id="0" />
        <mxCell id="1" parent="0" />
        <mxCell id="i_eNm5y1GWPZi8rxE3aH-44" style="edgeStyle=orthogonalEdgeStyle;curved=0;rounded=1;sketch=0;orthogonalLoop=1;jettySize=auto;html=1;exitX=0.5;exitY=1;exitDx=0;exitDy=0;entryX=0.5;entryY=0;entryDx=0;entryDy=0;startArrow=none;startFill=0;endArrow=classic;endFill=1;strokeColor=#457B9D;fillColor=#A8DADC;fontColor=#1D3557;" edge="1" parent="1" source="i_eNm5y1GWPZi8rxE3aH-1" target="i_eNm5y1GWPZi8rxE3aH-4">
          <mxGeometry relative="1" as="geometry" />
        </mxCell>
        <mxCell id="i_eNm5y1GWPZi8rxE3aH-1" value="&lt;p class=&quot;MsoNormal&quot; style=&quot;margin: 0cm ; font-family: &amp;#34;calibri&amp;#34; , sans-serif ; color: rgb(0 , 0 , 0)&quot;&gt;&lt;span style=&quot;font-family: &amp;#34;arial&amp;#34; , sans-serif ; color: rgb(35 , 31 , 32)&quot;&gt;&lt;font style=&quot;font-size: 12px&quot;&gt;Поиск и получение информации об экспонатах/картинах.&amp;nbsp;&lt;/font&gt;&lt;font size=&quot;3&quot;&gt;&lt;/font&gt;&lt;/span&gt;&lt;/p&gt;" style="rounded=0;whiteSpace=wrap;html=1;sketch=0;strokeColor=#457B9D;fillColor=#A8DADC;fontColor=#1D3557;" vertex="1" parent="1">
          <mxGeometry x="120" y="120" width="160" height="80" as="geometry" />
        </mxCell>
        <mxCell id="i_eNm5y1GWPZi8rxE3aH-34" style="edgeStyle=orthogonalEdgeStyle;curved=0;rounded=1;sketch=0;orthogonalLoop=1;jettySize=auto;html=1;exitX=1;exitY=0.5;exitDx=0;exitDy=0;startArrow=none;startFill=0;endArrow=none;endFill=0;strokeColor=#457B9D;fillColor=#A8DADC;fontColor=#1D3557;" edge="1" parent="1" source="i_eNm5y1GWPZi8rxE3aH-2">
          <mxGeometry relative="1" as="geometry">
            <mxPoint x="600" y="250" as="targetPoint" />
          </mxGeometry>
        </mxCell>
        <mxCell id="i_eNm5y1GWPZi8rxE3aH-41" style="edgeStyle=orthogonalEdgeStyle;curved=0;rounded=1;sketch=0;orthogonalLoop=1;jettySize=auto;html=1;exitX=0;exitY=1;exitDx=0;exitDy=0;entryX=0.75;entryY=0;entryDx=0;entryDy=0;startArrow=none;startFill=0;endArrow=classic;endFill=1;strokeColor=#457B9D;fillColor=#A8DADC;fontColor=#1D3557;" edge="1" parent="1" source="i_eNm5y1GWPZi8rxE3aH-2" target="i_eNm5y1GWPZi8rxE3aH-4">
          <mxGeometry relative="1" as="geometry" />
        </mxCell>
        <mxCell id="i_eNm5y1GWPZi8rxE3aH-2" value="&lt;span style=&quot;font-family: &amp;#34;arial&amp;#34; , sans-serif ; color: rgb(35 , 31 , 32)&quot;&gt;&lt;font style=&quot;font-size: 12px&quot;&gt;Возможность узнать, кто будет экскурсоводом,&amp;nbsp;&lt;/font&gt;&lt;/span&gt;&lt;span style=&quot;color: rgb(0 , 0 , 0) ; font-size: medium&quot;&gt;&lt;/span&gt;" style="rounded=0;whiteSpace=wrap;html=1;sketch=0;strokeColor=#457B9D;fillColor=#A8DADC;fontColor=#1D3557;" vertex="1" parent="1">
          <mxGeometry x="320" y="160" width="160" height="80" as="geometry" />
        </mxCell>
        <mxCell id="i_eNm5y1GWPZi8rxE3aH-33" style="edgeStyle=orthogonalEdgeStyle;curved=0;rounded=1;sketch=0;orthogonalLoop=1;jettySize=auto;html=1;exitX=1;exitY=0.25;exitDx=0;exitDy=0;startArrow=none;startFill=0;endArrow=none;endFill=0;strokeColor=#457B9D;fillColor=#A8DADC;fontColor=#1D3557;" edge="1" parent="1" source="i_eNm5y1GWPZi8rxE3aH-3">
          <mxGeometry relative="1" as="geometry">
            <mxPoint x="600" y="250" as="targetPoint" />
          </mxGeometry>
        </mxCell>
        <mxCell id="i_eNm5y1GWPZi8rxE3aH-42" style="edgeStyle=orthogonalEdgeStyle;curved=0;rounded=1;sketch=0;orthogonalLoop=1;jettySize=auto;html=1;exitX=0;exitY=0.5;exitDx=0;exitDy=0;entryX=1;entryY=0.5;entryDx=0;entryDy=0;startArrow=none;startFill=0;endArrow=classic;endFill=1;strokeColor=#457B9D;fillColor=#A8DADC;fontColor=#1D3557;" edge="1" parent="1" source="i_eNm5y1GWPZi8rxE3aH-3" target="i_eNm5y1GWPZi8rxE3aH-4">
          <mxGeometry relative="1" as="geometry" />
        </mxCell>
        <mxCell id="i_eNm5y1GWPZi8rxE3aH-3" value="&lt;div&gt;&lt;div&gt;&lt;div&gt;&lt;div&gt;&lt;div&gt;&lt;div&gt;&lt;span style=&quot;color: rgb(35 , 31 , 32) ; font-family: &amp;#34;arial&amp;#34; , sans-serif&quot;&gt;Возможность интерактивного просмотра музея&lt;/span&gt;&lt;/div&gt;&lt;/div&gt;&lt;/div&gt;&lt;/div&gt;&lt;/div&gt;&lt;/div&gt;&lt;span style=&quot;color: rgb(0 , 0 , 0) ; font-size: medium&quot;&gt;&lt;/span&gt;" style="rounded=0;whiteSpace=wrap;html=1;sketch=0;strokeColor=#457B9D;fillColor=#A8DADC;fontColor=#1D3557;" vertex="1" parent="1">
          <mxGeometry x="360" y="280" width="160" height="80" as="geometry" />
        </mxCell>
        <mxCell id="i_eNm5y1GWPZi8rxE3aH-16" style="edgeStyle=orthogonalEdgeStyle;curved=0;rounded=1;sketch=0;orthogonalLoop=1;jettySize=auto;html=1;exitX=0;exitY=0.5;exitDx=0;exitDy=0;startArrow=classic;startFill=1;endArrow=none;endFill=0;strokeColor=#457B9D;fillColor=#A8DADC;fontColor=#1D3557;" edge="1" parent="1" source="i_eNm5y1GWPZi8rxE3aH-4">
          <mxGeometry relative="1" as="geometry">
            <mxPoint x="80" y="80" as="targetPoint" />
          </mxGeometry>
        </mxCell>
        <mxCell id="i_eNm5y1GWPZi8rxE3aH-36" style="edgeStyle=orthogonalEdgeStyle;curved=0;rounded=1;sketch=0;orthogonalLoop=1;jettySize=auto;html=1;exitX=0.5;exitY=1;exitDx=0;exitDy=0;startArrow=none;startFill=0;endArrow=none;endFill=0;strokeColor=#457B9D;fillColor=#A8DADC;fontColor=#1D3557;" edge="1" parent="1" source="i_eNm5y1GWPZi8rxE3aH-4">
          <mxGeometry relative="1" as="geometry">
            <mxPoint x="600" y="260" as="targetPoint" />
            <Array as="points">
              <mxPoint x="200" y="380" />
              <mxPoint x="560" y="380" />
              <mxPoint x="560" y="300" />
            </Array>
          </mxGeometry>
        </mxCell>
        <mxCell id="i_eNm5y1GWPZi8rxE3aH-47" style="edgeStyle=orthogonalEdgeStyle;curved=0;rounded=1;sketch=0;orthogonalLoop=1;jettySize=auto;html=1;exitX=0.25;exitY=1;exitDx=0;exitDy=0;startArrow=classicThin;startFill=1;endArrow=none;endFill=0;strokeColor=#457B9D;fillColor=#A8DADC;fontColor=#1D3557;" edge="1" parent="1" source="i_eNm5y1GWPZi8rxE3aH-4">
          <mxGeometry relative="1" as="geometry">
            <mxPoint x="480" y="480" as="targetPoint" />
          </mxGeometry>
        </mxCell>
        <mxCell id="i_eNm5y1GWPZi8rxE3aH-4" value="&lt;p class=&quot;MsoNormal&quot; style=&quot;margin: 0cm ; font-family: &amp;#34;calibri&amp;#34; , sans-serif ; color: rgb(0 , 0 , 0)&quot;&gt;&lt;span style=&quot;font-family: &amp;#34;arial&amp;#34; , sans-serif ; color: rgb(35 , 31 , 32)&quot;&gt;&lt;font style=&quot;font-size: 12px&quot;&gt;Возможность электронной покупки билетов.&lt;/font&gt;&lt;/span&gt;&lt;/p&gt;" style="rounded=0;whiteSpace=wrap;html=1;sketch=0;strokeColor=#457B9D;fillColor=#A8DADC;fontColor=#1D3557;align=center;" vertex="1" parent="1">
          <mxGeometry x="120" y="280" width="160" height="80" as="geometry" />
        </mxCell>
        <mxCell id="i_eNm5y1GWPZi8rxE3aH-19" style="edgeStyle=orthogonalEdgeStyle;curved=0;rounded=1;sketch=0;orthogonalLoop=1;jettySize=auto;html=1;exitX=0.5;exitY=1;exitDx=0;exitDy=0;startArrow=classic;startFill=1;endArrow=none;endFill=0;strokeColor=#457B9D;fillColor=#A8DADC;fontColor=#1D3557;" edge="1" parent="1" source="i_eNm5y1GWPZi8rxE3aH-5">
          <mxGeometry relative="1" as="geometry">
            <mxPoint x="480" y="480" as="targetPoint" />
          </mxGeometry>
        </mxCell>
        <mxCell id="i_eNm5y1GWPZi8rxE3aH-51" style="edgeStyle=orthogonalEdgeStyle;curved=0;rounded=1;sketch=0;orthogonalLoop=1;jettySize=auto;html=1;exitX=0.5;exitY=0;exitDx=0;exitDy=0;startArrow=classicThin;startFill=1;endArrow=none;endFill=0;strokeColor=#457B9D;fillColor=#A8DADC;fontColor=#1D3557;" edge="1" parent="1" source="i_eNm5y1GWPZi8rxE3aH-5">
          <mxGeometry relative="1" as="geometry">
            <mxPoint x="680" y="40" as="targetPoint" />
          </mxGeometry>
        </mxCell>
        <mxCell id="i_eNm5y1GWPZi8rxE3aH-5" value="&lt;span style=&quot;font-family: &amp;#34;arial&amp;#34; , sans-serif ; color: rgb(35 , 31 , 32)&quot;&gt;&lt;font style=&quot;font-size: 12px&quot;&gt;Обеспечение доступа к системе через корпоративную интрасеть&lt;/font&gt;&lt;/span&gt;&lt;span style=&quot;color: rgb(0 , 0 , 0) ; font-size: medium&quot;&gt;&lt;/span&gt;" style="rounded=0;whiteSpace=wrap;html=1;sketch=0;strokeColor=#457B9D;fillColor=#A8DADC;fontColor=#1D3557;" vertex="1" parent="1">
          <mxGeometry x="600" y="360" width="160" height="80" as="geometry" />
        </mxCell>
        <mxCell id="i_eNm5y1GWPZi8rxE3aH-7" value="" style="endArrow=classic;html=1;strokeColor=#457B9D;fillColor=#A8DADC;fontColor=#1D3557;entryX=0.25;entryY=0;entryDx=0;entryDy=0;" edge="1" parent="1" target="i_eNm5y1GWPZi8rxE3aH-2">
          <mxGeometry width="50" height="50" relative="1" as="geometry">
            <mxPoint x="360" y="80" as="sourcePoint" />
            <mxPoint x="440" y="200" as="targetPoint" />
          </mxGeometry>
        </mxCell>
        <mxCell id="i_eNm5y1GWPZi8rxE3aH-9" value="Запросы посетителей сайта" style="text;html=1;align=center;verticalAlign=middle;resizable=0;points=[];autosize=1;fontColor=#1D3557;" vertex="1" parent="1">
          <mxGeometry x="110" y="60" width="180" height="20" as="geometry" />
        </mxCell>
        <mxCell id="i_eNm5y1GWPZi8rxE3aH-10" value="" style="endArrow=none;html=1;strokeColor=#457B9D;fillColor=#A8DADC;fontColor=#1D3557;startArrow=none;startFill=0;endFill=0;" edge="1" parent="1">
          <mxGeometry width="50" height="50" relative="1" as="geometry">
            <mxPoint x="360" y="80" as="sourcePoint" />
            <mxPoint x="200" y="80" as="targetPoint" />
          </mxGeometry>
        </mxCell>
        <mxCell id="i_eNm5y1GWPZi8rxE3aH-12" value="" style="endArrow=classic;html=1;strokeColor=#457B9D;fillColor=#A8DADC;fontColor=#1D3557;entryX=0.5;entryY=0;entryDx=0;entryDy=0;" edge="1" parent="1" target="i_eNm5y1GWPZi8rxE3aH-1">
          <mxGeometry width="50" height="50" relative="1" as="geometry">
            <mxPoint x="200" y="80" as="sourcePoint" />
            <mxPoint x="230" y="80" as="targetPoint" />
          </mxGeometry>
        </mxCell>
        <mxCell id="i_eNm5y1GWPZi8rxE3aH-14" value="" style="endArrow=none;html=1;strokeColor=#457B9D;fillColor=#A8DADC;fontColor=#1D3557;" edge="1" parent="1">
          <mxGeometry width="50" height="50" relative="1" as="geometry">
            <mxPoint x="80" y="80" as="sourcePoint" />
            <mxPoint x="200" y="80" as="targetPoint" />
            <Array as="points">
              <mxPoint x="120" y="80" />
            </Array>
          </mxGeometry>
        </mxCell>
        <mxCell id="i_eNm5y1GWPZi8rxE3aH-17" value="" style="endArrow=none;html=1;strokeColor=#457B9D;fillColor=#A8DADC;fontColor=#1D3557;" edge="1" parent="1">
          <mxGeometry width="50" height="50" relative="1" as="geometry">
            <mxPoint x="120" y="480" as="sourcePoint" />
            <mxPoint x="760" y="480" as="targetPoint" />
          </mxGeometry>
        </mxCell>
        <mxCell id="i_eNm5y1GWPZi8rxE3aH-18" value="Лицо, управляющее сайтом&amp;nbsp;" style="text;html=1;align=center;verticalAlign=middle;resizable=0;points=[];autosize=1;fontColor=#1D3557;" vertex="1" parent="1">
          <mxGeometry x="510" y="480" width="180" height="20" as="geometry" />
        </mxCell>
        <mxCell id="i_eNm5y1GWPZi8rxE3aH-22" value="" style="endArrow=none;html=1;strokeColor=#457B9D;fillColor=#A8DADC;fontColor=#1D3557;" edge="1" parent="1">
          <mxGeometry width="50" height="50" relative="1" as="geometry">
            <mxPoint x="680" y="40" as="sourcePoint" />
            <mxPoint x="80" y="40" as="targetPoint" />
          </mxGeometry>
        </mxCell>
        <mxCell id="i_eNm5y1GWPZi8rxE3aH-23" value="Платформа, на которой размещен сайт" style="text;html=1;align=center;verticalAlign=middle;resizable=0;points=[];autosize=1;fontColor=#1D3557;" vertex="1" parent="1">
          <mxGeometry x="360" y="10" width="240" height="20" as="geometry" />
        </mxCell>
        <mxCell id="i_eNm5y1GWPZi8rxE3aH-25" value="" style="endArrow=none;html=1;strokeColor=#457B9D;fillColor=#A8DADC;fontColor=#1D3557;" edge="1" parent="1">
          <mxGeometry width="50" height="50" relative="1" as="geometry">
            <mxPoint x="80" y="80" as="sourcePoint" />
            <mxPoint x="80" as="targetPoint" />
          </mxGeometry>
        </mxCell>
        <mxCell id="i_eNm5y1GWPZi8rxE3aH-26" value="" style="endArrow=classic;html=1;strokeColor=#457B9D;fillColor=#A8DADC;fontColor=#1D3557;" edge="1" parent="1">
          <mxGeometry width="50" height="50" relative="1" as="geometry">
            <mxPoint x="600" y="250" as="sourcePoint" />
            <mxPoint x="760" y="250" as="targetPoint" />
          </mxGeometry>
        </mxCell>
        <mxCell id="i_eNm5y1GWPZi8rxE3aH-35" value="Проданные билеты" style="text;html=1;align=center;verticalAlign=middle;resizable=0;points=[];autosize=1;fontColor=#1D3557;" vertex="1" parent="1">
          <mxGeometry x="685" y="220" width="130" height="20" as="geometry" />
        </mxCell>
        <mxCell id="i_eNm5y1GWPZi8rxE3aH-38" value="Система &lt;br&gt;оформления &lt;br&gt;заказов" style="text;html=1;align=center;verticalAlign=middle;resizable=0;points=[];autosize=1;fontColor=#1D3557;" vertex="1" parent="1">
          <mxGeometry x="-5" y="265" width="90" height="50" as="geometry" />
        </mxCell>
        <mxCell id="i_eNm5y1GWPZi8rxE3aH-43" value="Система &lt;br&gt;привлечения&lt;br&gt;&amp;nbsp;клиентов" style="text;html=1;align=center;verticalAlign=middle;resizable=0;points=[];autosize=1;fontColor=#1D3557;" vertex="1" parent="1">
          <mxGeometry x="100" y="205" width="90" height="50" as="geometry" />
        </mxCell>
        <mxCell id="i_eNm5y1GWPZi8rxE3aH-46" value="Система&amp;nbsp;&lt;br&gt;привлечения&lt;br&gt;&amp;nbsp;клиентов" style="text;html=1;align=center;verticalAlign=middle;resizable=0;points=[];autosize=1;fontColor=#1D3557;" vertex="1" parent="1">
          <mxGeometry x="215" y="205" width="90" height="50" as="geometry" />
        </mxCell>
        <mxCell id="i_eNm5y1GWPZi8rxE3aH-48" value="Занесение новых пользователей в БД и &lt;br&gt;предоставление билетов на посещение" style="text;html=1;align=center;verticalAlign=middle;resizable=0;points=[];autosize=1;fontColor=#1D3557;" vertex="1" parent="1">
          <mxGeometry x="180" y="430" width="250" height="30" as="geometry" />
        </mxCell>
        <mxCell id="i_eNm5y1GWPZi8rxE3aH-49" value="&lt;font style=&quot;font-size: 12px&quot;&gt;Система&amp;nbsp;&lt;br&gt;привлечения&lt;br&gt;&amp;nbsp;клиентов&lt;/font&gt;" style="text;html=1;align=center;verticalAlign=middle;resizable=0;points=[];autosize=1;fontColor=#1D3557;" vertex="1" parent="1">
          <mxGeometry x="275" y="270" width="90" height="50" as="geometry" />
        </mxCell>
      </root>
    </mxGraphModel>
  </diagram>
</mxfile>
